<svg version="1.2" xmlns="http://www.w3.org/2000/svg" viewBox="0 0 128 128" width="128" height="128">
	<style>
		.s0 { fill: #ffffff } 
	</style>
	<path class="s0" d="m64.56 0.41c-5.64 0.7-9.35 1.81-14.47 4.39-12.54 6.28-21.05 16.66-24 29.32-1.88 8.04-1.29 19.77 1.46 29.27 1.66 5.76 3.27 9.39 5.99 13.6 2.05 3.13 3.19 4.33 4.04 4.21 1.17-0.15 0.84-1.93-1.17-6.43-6.9-15.47-8.1-27.81-3.98-41.35 3.83-12.69 12.81-20.93 26.67-24.5 4.38-1.14 5.2-1.29 10.79-1.93 4.94-0.55 5.23-0.61 5.9-1.37 0.59-0.68 0.67-1 0.56-2.66-0.18-2.81-0.5-2.99-5.18-2.96-2.02 0.03-5 0.21-6.61 0.41z"/>
	<path class="s0" d="m69.39 11.08c-7.57 1.03-11.81 2.23-17.11 4.83-10.61 5.2-16.63 15.14-17.95 29.68-0.47 5.14 0.38 11.66 2.31 17.8 1.08 3.39 1.73 4.97 4.74 12.11 2.51 5.93 4.03 11.17 4.03 13.91 0 2.26-0.7 4.77-1.96 7.05-1.2 2.19-2.19 3.42-7.04 8.54-1.93 2.07-3.77 4.3-4.13 4.97-0.9 1.93-1.25 5.03-1.14 10.41 0.12 5.35 0.3 6.05 1.79 6.96 0.9 0.52 1.99 0.55 31.78 0.64 33.51 0.06 33.16 0.09 34.33-1.49 0.58-0.79 0.61-1.2 0.61-7.31 0-8.57-0.09-8.83-3.95-12.89-7.77-8.19-8.42-9.92-6.58-17.43 2.43-9.88-0.29-19.21-7.89-27.16-1.29-1.35-4.21-4.01-6.49-5.91-4.94-4.12-6.49-5.67-8.04-8.01-0.94-1.4-1.11-1.96-1.05-2.93 0.14-1.84 0.61-1.95 6.81-1.78 7.54 0.21 12.13 1.4 19.15 5.06 2.72 1.4 3.16 1.55 3.8 1.26 0.67-0.3 7.05-9.56 7.95-11.55 0.68-1.49 0.09-2.11-13.65-14.91-2.43-2.26-6.11-5.71-8.19-7.64-2.1-1.95-4.27-3.83-4.82-4.18-1.23-0.73-2.02-0.73-7.31-0.03z"/>
</svg>